<?xml version="1.0" encoding="utf-8"?>
<!-- Generator: Adobe Illustrator 26.3.1, SVG Export Plug-In . SVG Version: 6.00 Build 0)  -->
<svg version="1.1" id="Layer_1" xmlns="http://www.w3.org/2000/svg" xmlns:xlink="http://www.w3.org/1999/xlink" x="0px" y="0px"
	 viewBox="0 0 392 398" style="enable-background:new 0 0 392 398;" xml:space="preserve">
<style type="text/css">
	.st0{fill:#FFFFFF;}
	.st1{fill:#595959;}
</style>
<g>
	<path class="st0" d="M358.2,390c-118,0-235.9,0-354.2,0c0-72.6,0-145.2,0-217.8c0.2,1.2,0.6,2.4,0.7,3.6c1.8,22.1,7.9,42.9,19.1,62
		c28,47.8,69.8,74.5,125.1,79c32,2.6,62-4.6,89.4-21.2c9.5-5.8,18.3-12.9,27.2-19.2c8.4,8.3,17.2,17.1,26.5,26.3
		c-2.8,2.6-5.7,5.2-8.5,8c-4.6,4.5-4.5,6.5,0.1,11.2c18.6,18.6,37.3,37.1,55.9,55.8C344.9,383,350.5,388,358.2,390z"/>
	<path class="st1" d="M358.2,390c-7.7-2-13.2-7-18.6-12.4c-18.5-18.7-37.2-37.2-55.9-55.8c-4.7-4.6-4.7-6.6-0.1-11.2
		c2.8-2.8,5.8-5.4,8.5-8c-9.3-9.2-18.1-18-26.5-26.3c-8.9,6.4-17.7,13.5-27.2,19.2c-27.5,16.6-57.5,23.8-89.4,21.2
		c-55.4-4.5-97.1-31.2-125.1-79c-11.2-19.1-17.2-39.9-19.1-62c-0.1-1.2-0.4-2.4-0.7-3.6c0-6.7,0-13.5,0-20.2
		c1-6.5,1.6-13.1,2.9-19.5C18.6,78,49.8,39,101.4,18.2c76.1-30.9,160.2,1.7,197.2,75c28.2,55.8,18.7,125.6-23.4,172
		c-0.8,0.8-1.5,1.7-2.1,2.4c9,8.8,17.9,17.6,27.2,26.8c2.6-2.7,5.6-6.1,8.8-9.2c3-3,5.7-3.1,8.8,0c20.8,20.8,41.8,41.5,62.3,62.6
		c13.5,13.9,7.1,36-11.4,41.5c-0.6,0.2-1.1,0.5-1.6,0.8C364.1,390,361.2,390,358.2,390z M14.1,162.3
		c0.3,80.3,65.3,145.1,145.5,144.8c80.2-0.3,145-65.2,144.8-145.1c-0.2-80.4-65.3-145.4-145.2-145.1C78.8,17.2,13.9,82.3,14.1,162.3
		z M293.1,316.5c0.3,0.3,0.7,0.8,1.1,1.2c19,19,37.9,37.9,56.9,56.9c0.8,0.8,1.6,1.6,2.5,2.2c8.4,6.2,20.6,1.8,22.9-8.3
		c1.3-5.8-0.4-10.7-4.7-15c-18.7-18.7-37.4-37.4-56.1-56.1c-0.7-0.7-1.4-1.3-2-1.8C306.9,302.6,300.1,309.4,293.1,316.5z"/>
	<path class="st1" d="M229.8,219.2c-9.9,36-41.1,54.7-69.4,55c-29,0.4-61.1-17.6-71.6-55c-1.1,1-2.1,1.9-3,2.8
		c-6.9,6.8-13.8,13.7-20.7,20.5c-3.9,3.9-6.4,4.5-8.9,2.2c-2.7-2.5-2.1-5.5,1.9-9.5c8.9-8.9,17.9-17.8,26.7-26.8
		c1.2-1.3,2.1-3.4,2.2-5.1c0.2-8.5,0.1-16.9,0.1-25.9c-5.7,0-11.2,0-16.6,0c-5.2,0-11-1.2-15.5,0.6c-4.4,1.8-7.5,6.7-11.1,10.3
		c-1.3,1.3-2.6,2.7-4.1,3.9c-2.2,1.7-4.5,1.5-6.4-0.4c-2.1-2-2.4-4.6-0.4-6.7c5.3-5.6,10.8-11.1,16.4-16.4c1.2-1.1,3.5-1.3,5.2-1.4
		c9.4-0.1,18.7-0.1,28.1-0.1c1.3,0,2.7,0,4.5,0c0-7.7,0.1-15.1-0.1-22.4c0-1-1.3-2.1-2.1-2.9c-6-6-12-12-18-18c-3-3-3.2-5.8-0.7-8.1
		c2.3-2.2,5-1.9,7.8,0.9c4.1,4.1,8.2,8.3,12.8,12.9c0.5-2.5,0.7-4.3,1.1-6c2.1-8.2,7.9-13.4,16.2-14.3c2.7-0.3,3.8-1.1,4.2-3.9
		c2-12.3,7.9-22.4,17.3-30.6c1-0.9,2.1-1.8,3.1-2.7c0.1-0.1,0.1-0.2,0.3-0.6c-2.4-4.3-5-8.6-7.5-13.1c-2-3.6-1.6-6.1,1.2-7.8
		c2.8-1.7,5.5-0.8,7.6,2.8c2.6,4.4,5.1,8.8,7.7,13.4c14.3-6.1,28.5-6.3,42.9,0c2.8-4.8,5.3-9.4,8.1-14c1.9-3.2,5.3-3.9,7.9-1.7
		c2.3,1.9,2.3,4.2,0.9,6.7c-2.6,4.5-5.2,9.1-8,13.9c1.1,0.9,2.1,1.7,3.1,2.6c9.7,8.4,15.7,18.9,18,31.5c0.2,1.2,1.3,2.8,2.2,3.1
		c13.1,3.1,16.9,7.1,19.1,20.7c4.6-4.6,8.8-8.9,13.1-13.2c3.1-3,7.1-2.5,8.7,1c1.1,2.5,0.2,4.5-1.7,6.4c-6.1,6-12.3,12.1-18.2,18.3
		c-1.2,1.3-2.1,3.4-2.1,5.1c-0.2,6.5-0.1,12.9-0.1,19.8c1.6,0.1,2.9,0.2,4.2,0.2c9.4,0,18.7,0.1,28.1,0c3.1,0,5.5,0.9,7.6,3.2
		c4.3,4.5,8.8,8.8,13.2,13.3c2.9,2.9,3.1,5.9,0.7,8.1c-2.3,2.1-5,1.9-7.9-0.9c-4-3.9-8-7.9-12-11.8c-0.8-0.8-2.1-1.6-3.1-1.6
		c-10.1-0.1-20.2-0.1-30.8-0.1c0,6.6,0.5,12.9-0.1,19.2c-0.7,7.1,1.6,12.1,7,16.8c7.6,6.7,14.4,14.2,21.5,21.3
		c0.5,0.5,1.1,1.1,1.6,1.6c3,3.1,3.3,5.8,1,8.2c-2.4,2.4-5,2.2-8.1-0.9c-7.3-7.2-14.5-14.4-21.8-21.6
		C231.9,221.1,231,220.3,229.8,219.2z M164.5,263.7c2-0.2,3.6-0.2,5.2-0.5c30.6-5.6,51.7-30.7,52-61.8c0.2-23.6,0.1-47.1,0-70.7
		c0-7.8-3.6-11.4-11.5-11.5c-14.1,0-28.2,0-42.3,0c-1.1,0-2.2,0.1-3.4,0.2C164.5,167.5,164.5,215.3,164.5,263.7z M153.7,264.2
		c0-48.8,0-96.7,0-144.9c-16.3,0-32.4-0.2-48.4,0.1c-5.1,0.1-8.3,4.4-8.3,9.8c0,24.8-0.3,49.7,0.1,74.5
		c0.5,25.9,17.6,48.6,42.3,56.9C143.9,262.2,148.6,263,153.7,264.2z M200.4,108.7c-1.7-20.8-21.5-37.2-43.2-36.2
		c-20,0.9-39,18.5-38.8,36.2C145.6,108.7,172.9,108.7,200.4,108.7z"/>
</g>
</svg>
