<?xml version="1.0" encoding="utf-8"?>
<!-- Generator: Adobe Illustrator 26.3.1, SVG Export Plug-In . SVG Version: 6.00 Build 0)  -->
<svg version="1.1" id="Layer_1" xmlns="http://www.w3.org/2000/svg" xmlns:xlink="http://www.w3.org/1999/xlink" x="0px" y="0px"
	 viewBox="0 0 40.2 28.6" style="enable-background:new 0 0 40.2 28.6;" xml:space="preserve">
<style type="text/css">
	.st0{fill:#FFFFFF;}
</style>
<path class="st0" d="M16.9,4.9c2.2-0.3,4.3-0.3,6.5,0c0-0.1,0.1-0.2,0.1-0.3c0.2-0.4,0.4-0.8,0.6-1.1c0-0.1,0.1-0.1,0.2-0.1
	c2,0.4,3.8,0.9,5.7,1.8c0.1,0,0.1,0.1,0.2,0.1c1.5,2.2,2.6,4.5,3.3,7c0.4,1.3,0.7,2.6,0.8,3.9c0.1,1.3,0.2,2.6,0.1,4
	c0,0.5-0.1,0.9-0.1,1.3c0,0.1-0.1,0.1-0.1,0.2c-0.9,0.7-1.8,1.3-2.8,1.8c-1.3,0.7-2.7,1.3-4.2,1.8c-0.1,0-0.2,0-0.2-0.1
	c-0.5-0.7-1-1.5-1.4-2.3c-0.1-0.1-0.1-0.2,0.1-0.2c0.7-0.3,1.4-0.6,2.1-1c0.2-0.1,0.2-0.1,0-0.3c-0.1-0.1-0.2-0.2-0.3-0.2
	c-0.1-0.1-0.1-0.1-0.2,0c-0.7,0.3-1.3,0.5-2,0.8c-1,0.3-2,0.6-3.1,0.7c-1,0.1-2,0.1-2.9,0.1c-1.3-0.1-2.6-0.3-3.9-0.7
	c-0.8-0.2-1.5-0.5-2.2-0.8c-0.1,0-0.2,0-0.3,0c-0.1,0.1-0.2,0.2-0.3,0.2c-0.1,0.1-0.1,0.2,0,0.2c0.6,0.4,1.3,0.7,2,1
	c0.3,0.1,0.3,0.1,0.1,0.4c-0.4,0.7-0.8,1.5-1.3,2.1c-0.1,0.1-0.1,0.1-0.2,0.1c-2.5-0.8-4.9-2-7-3.6c0,0-0.1-0.1-0.1-0.2
	c-0.1-1-0.1-2.1-0.1-3.1c0-1,0.1-1.9,0.3-2.9c0.3-2,0.8-3.8,1.6-5.7c0.7-1.6,1.5-3.1,2.4-4.5c0-0.1,0.1-0.1,0.2-0.1
	c1.6-0.7,3.3-1.3,5-1.6c0.2,0,0.5-0.1,0.7-0.1c0.1,0,0.1,0,0.2,0.1C16.4,4,16.6,4.4,16.9,4.9z M22.3,15.4c0,0.7,0.3,1.5,0.9,2.1
	c0.9,1,2.5,1,3.4,0c0.6-0.6,0.9-1.3,0.9-2.2c0-0.8-0.3-1.6-0.9-2.2c-1-0.9-2.4-0.9-3.4,0C22.6,13.8,22.3,14.5,22.3,15.4z M17.9,15.4
	c0-0.1,0-0.1,0-0.2c0-0.9-0.4-1.6-1-2.1c-1-0.8-2.5-0.8-3.4,0.3c-0.7,0.8-0.9,1.8-0.6,2.8c0.2,0.8,0.7,1.5,1.4,1.9
	c0.8,0.4,1.6,0.4,2.3-0.1C17.5,17.3,17.9,16.4,17.9,15.4z"/>
</svg>
