<?xml version="1.0" encoding="utf-8"?>
<!-- Generator: Adobe Illustrator 24.1.2, SVG Export Plug-In . SVG Version: 6.00 Build 0)  -->
<svg version="1.1" xmlns="http://www.w3.org/2000/svg" xmlns:xlink="http://www.w3.org/1999/xlink" x="0px" y="0px"
	 viewBox="0 0 198.372 107.244" enable-background="new 0 0 198.372 107.244" xml:space="preserve">
<g id="Layer_3">
</g>
<g id="Layer_1">
	<rect x="-6.562" y="-5.426" width="211.495" height="116.646"/>
	<g>
		<polygon fill="#FFFFFF" points="79.703,27.009 67.067,59.263 54.362,24.768 40.897,59.186 29.412,27.009 24.186,27.009 
			40.692,72.198 54.235,37.779 66.927,72.235 84.928,27.009 		"/>
		<path fill="#FFFFFF" d="M105.125,49.968c-2.108-1.723-13.148-7.458-14.568-8.45c-1.415-0.989-2.126-2.429-2.126-4.319
			c0-1.893,0.721-3.43,2.16-4.61c1.439-1.188,3.19-1.774,5.253-1.774c1.33,0,2.466,0.256,3.415,0.775
			c0.945,0.517,1.848,1.357,2.705,2.517l0.454,0.704c0.126,0.091,0.302,0.306,0.517,0.644l3.803-2.447
			c-1.247-2.193-2.803-3.858-4.676-4.999c-1.867-1.138-3.878-1.707-6.023-1.707c-3.654,0-6.644,1.029-8.965,3.093
			c-2.318,2.063-3.477,4.711-3.477,7.936c0,3.048,1.048,5.403,3.154,7.055c2.109,1.654,12.614,7.107,14.246,8.225
			c1.634,1.115,2.447,2.769,2.447,4.963c0,2.493-0.821,4.563-2.479,6.215c-1.656,1.659-3.753,2.483-6.283,2.483
			c-2.234,0-4.081-0.687-5.541-2.064c-1.462-1.377-2.496-3.346-3.097-5.926l-4.642,1.421c0.404,1.74,0.996,3.291,1.76,4.642
			c0.786,1.378,1.757,2.548,2.916,3.508c2.298,1.916,5.21,2.873,8.736,2.873c3.738,0,6.915-1.283,9.539-3.838
			c2.618-2.557,3.93-5.683,3.93-9.382C108.284,54.199,107.232,51.683,105.125,49.968z"/>
		<path fill="#FFFFFF" d="M159.251,47.01c1.083-0.308,2.234-0.463,3.463-0.463c3.275,0,5.927,1.06,7.948,3.177
			c2.028,2.11,3.046,4.602,3.046,7.474c0,2.019-0.486,3.91-1.458,5.678c-0.965,1.766-2.847,4.166-5.643,7.179l-8.861,9.563h16.441
			v3.44H150l13.609-14.696c2.757-2.961,4.554-5.151,5.388-6.579c0.834-1.424,1.248-2.931,1.248-4.508
			c0-2.003-0.745-3.729-2.244-5.171c-1.491-1.441-3.321-2.166-5.486-2.166c-1.238,0-2.361,0.225-3.375,0.673
			C159.229,49.747,159.261,47.332,159.251,47.01z"/>
		<g>
			<path fill="#FFFFFF" d="M133.241,24.186c-13.466,0-24.383,10.887-24.383,24.316s10.917,24.316,24.383,24.316
				c13.466,0,24.383-10.887,24.383-24.316S146.707,24.186,133.241,24.186z M133.241,68.299c-10.818,0-19.587-8.863-19.587-19.797
				s8.77-19.797,19.587-19.797c10.818,0,19.587,8.863,19.587,19.797S144.059,68.299,133.241,68.299z"/>
			<path fill="#FFFFFF" d="M152.764,46.959l-7.098,0.017l-3.539,6.368l-8.83-21.526l-7.944,17.683l-11.675-0.025
				c0.047,0.974,0.165,1.929,0.346,2.861l13.177,0.028l5.976-13.301l8.561,20.869l5.613-10.1l5.43-0.013
				c0.028-0.436,0.048-0.875,0.048-1.318C152.828,47.982,152.803,47.469,152.764,46.959z"/>
		</g>
	</g>
</g>
<g id="menu">
</g>
</svg>
